HIERARCHY
ROOT Freezer
{
	OFFSET 0.0 0.0 0.0
	CHANNELS 0
	JOINT Freezer_Door
	{
		OFFSET -0.3125 -1.0 0.0
		CHANNELS 3 Xrotation Yrotation Zrotation
		End Site
		{
			OFFSET 0.0 0.0 0.0
		}
	}
}
MOTION
Frames: 41
Frame Time: 0.041667
0.0 0.0 0.000
0.0 0.0 05.00
0.0 0.0 10.00
0.0 0.0 15.00
0.0 0.0 20.00
0.0 0.0 25.00
0.0 0.0 30.00
0.0 0.0 35.00
0.0 0.0 40.00
0.0 0.0 45.00
0.0 0.0 50.00
0.0 0.0 55.00
0.0 0.0 60.00
0.0 0.0 65.00
0.0 0.0 70.00
0.0 0.0 75.00
0.0 0.0 80.00
0.0 0.0 85.00
0.0 0.0 90.00
0.0 0.0 95.00
0.0 0.0 100.0
0.0 0.0 95.00
0.0 0.0 90.00 
0.0 0.0 85.00 
0.0 0.0 75.00 
0.0 0.0 70.00 
0.0 0.0 65.00 
0.0 0.0 60.00 
0.0 0.0 55.00 
0.0 0.0 50.00 
0.0 0.0 45.00 
0.0 0.0 40.00
0.0 0.0 35.00 
0.0 0.0 30.00 
0.0 0.0 25.00 
0.0 0.0 20.00 
0.0 0.0 15.00 
0.0 0.0 10.00 
0.0 0.0 05.00 
0.0 0.0 0.000 
0.0 0.0 0.000 
